<?xml version="1.0" encoding="UTF-8"?>
<svg xmlns="http://www.w3.org/2000/svg" width="1547" height="125">
   <defs>
      <style type="text/css">
    @namespace "http://www.w3.org/2000/svg";
    .line                 {fill: none; stroke: #332900; stroke-width: 1;}
    .bold-line            {stroke: #141000; shape-rendering: crispEdges; stroke-width: 2;}
    .thin-line            {stroke: #1F1800; shape-rendering: crispEdges}
    .filled               {fill: #332900; stroke: none;}
    text.terminal         {font-family: Verdana, Sans-serif;
                            font-size: 12px;
                            fill: #141000;
                            font-weight: bold;
                          }
    text.nonterminal      {font-family: Verdana, Sans-serif;
                            font-size: 12px;
                            fill: #1A1400;
                            font-weight: normal;
                          }
    text.regexp           {font-family: Verdana, Sans-serif;
                            font-size: 12px;
                            fill: #1F1800;
                            font-weight: normal;
                          }
    rect, circle, polygon {fill: #332900; stroke: #332900;}
    rect.terminal         {fill: #FFDB4D; stroke: #332900; stroke-width: 1;}
    rect.nonterminal      {fill: #FFEC9E; stroke: #332900; stroke-width: 1;}
    rect.text             {fill: none; stroke: none;}
    polygon.regexp        {fill: #FFF4C7; stroke: #332900; stroke-width: 1;}
  </style>
   </defs>
   <polygon points="9 17 1 13 1 21"/>
   <polygon points="17 17 9 13 9 21"/>
   <a xmlns:xlink="http://www.w3.org/1999/xlink"
       xlink:href="#caseInsensitiveE"
       xlink:title="caseInsensitiveE">
      <rect x="51" y="3" width="126" height="32"/>
      <rect x="49" y="1" width="126" height="32" class="nonterminal"/>
      <text class="nonterminal" x="59" y="21">caseInsensitiveE</text>
   </a>
   <a xmlns:xlink="http://www.w3.org/1999/xlink"
       xlink:href="#caseInsensitiveR"
       xlink:title="caseInsensitiveR">
      <rect x="197" y="3" width="126" height="32"/>
      <rect x="195" y="1" width="126" height="32" class="nonterminal"/>
      <text class="nonterminal" x="205" y="21">caseInsensitiveR</text>
   </a>
   <a xmlns:xlink="http://www.w3.org/1999/xlink"
       xlink:href="#caseInsensitiveR"
       xlink:title="caseInsensitiveR">
      <rect x="343" y="3" width="126" height="32"/>
      <rect x="341" y="1" width="126" height="32" class="nonterminal"/>
      <text class="nonterminal" x="351" y="21">caseInsensitiveR</text>
   </a>
   <a xmlns:xlink="http://www.w3.org/1999/xlink"
       xlink:href="#caseInsensitiveO"
       xlink:title="caseInsensitiveO">
      <rect x="489" y="3" width="128" height="32"/>
      <rect x="487" y="1" width="128" height="32" class="nonterminal"/>
      <text class="nonterminal" x="497" y="21">caseInsensitiveO</text>
   </a>
   <a xmlns:xlink="http://www.w3.org/1999/xlink"
       xlink:href="#caseInsensitiveR"
       xlink:title="caseInsensitiveR">
      <rect x="637" y="3" width="126" height="32"/>
      <rect x="635" y="1" width="126" height="32" class="nonterminal"/>
      <text class="nonterminal" x="645" y="21">caseInsensitiveR</text>
   </a>
   <a xmlns:xlink="http://www.w3.org/1999/xlink"
       xlink:href="#caseInsensitiveW"
       xlink:title="caseInsensitiveW">
      <rect x="51" y="47" width="132" height="32"/>
      <rect x="49" y="45" width="132" height="32" class="nonterminal"/>
      <text class="nonterminal" x="59" y="65">caseInsensitiveW</text>
   </a>
   <a xmlns:xlink="http://www.w3.org/1999/xlink"
       xlink:href="#caseInsensitiveA"
       xlink:title="caseInsensitiveA">
      <rect x="203" y="47" width="126" height="32"/>
      <rect x="201" y="45" width="126" height="32" class="nonterminal"/>
      <text class="nonterminal" x="211" y="65">caseInsensitiveA</text>
   </a>
   <a xmlns:xlink="http://www.w3.org/1999/xlink"
       xlink:href="#caseInsensitiveR"
       xlink:title="caseInsensitiveR">
      <rect x="349" y="47" width="126" height="32"/>
      <rect x="347" y="45" width="126" height="32" class="nonterminal"/>
      <text class="nonterminal" x="357" y="65">caseInsensitiveR</text>
   </a>
   <a xmlns:xlink="http://www.w3.org/1999/xlink"
       xlink:href="#caseInsensitiveN"
       xlink:title="caseInsensitiveN">
      <rect x="495" y="47" width="128" height="32"/>
      <rect x="493" y="45" width="128" height="32" class="nonterminal"/>
      <text class="nonterminal" x="503" y="65">caseInsensitiveN</text>
   </a>
   <a xmlns:xlink="http://www.w3.org/1999/xlink"
       xlink:href="#caseInsensitiveI"
       xlink:title="caseInsensitiveI">
      <rect x="643" y="47" width="124" height="32"/>
      <rect x="641" y="45" width="124" height="32" class="nonterminal"/>
      <text class="nonterminal" x="651" y="65">caseInsensitiveI</text>
   </a>
   <a xmlns:xlink="http://www.w3.org/1999/xlink"
       xlink:href="#caseInsensitiveN"
       xlink:title="caseInsensitiveN">
      <rect x="787" y="47" width="128" height="32"/>
      <rect x="785" y="45" width="128" height="32" class="nonterminal"/>
      <text class="nonterminal" x="795" y="65">caseInsensitiveN</text>
   </a>
   <a xmlns:xlink="http://www.w3.org/1999/xlink"
       xlink:href="#caseInsensitiveG"
       xlink:title="caseInsensitiveG">
      <rect x="935" y="47" width="128" height="32"/>
      <rect x="933" y="45" width="128" height="32" class="nonterminal"/>
      <text class="nonterminal" x="943" y="65">caseInsensitiveG</text>
   </a>
   <a xmlns:xlink="http://www.w3.org/1999/xlink"
       xlink:href="#caseInsensitiveS"
       xlink:title="caseInsensitiveS">
      <rect x="51" y="91" width="126" height="32"/>
      <rect x="49" y="89" width="126" height="32" class="nonterminal"/>
      <text class="nonterminal" x="59" y="109">caseInsensitiveS</text>
   </a>
   <a xmlns:xlink="http://www.w3.org/1999/xlink"
       xlink:href="#caseInsensitiveU"
       xlink:title="caseInsensitiveU">
      <rect x="197" y="91" width="128" height="32"/>
      <rect x="195" y="89" width="128" height="32" class="nonterminal"/>
      <text class="nonterminal" x="205" y="109">caseInsensitiveU</text>
   </a>
   <a xmlns:xlink="http://www.w3.org/1999/xlink"
       xlink:href="#caseInsensitiveG"
       xlink:title="caseInsensitiveG">
      <rect x="345" y="91" width="128" height="32"/>
      <rect x="343" y="89" width="128" height="32" class="nonterminal"/>
      <text class="nonterminal" x="353" y="109">caseInsensitiveG</text>
   </a>
   <a xmlns:xlink="http://www.w3.org/1999/xlink"
       xlink:href="#caseInsensitiveG"
       xlink:title="caseInsensitiveG">
      <rect x="493" y="91" width="128" height="32"/>
      <rect x="491" y="89" width="128" height="32" class="nonterminal"/>
      <text class="nonterminal" x="501" y="109">caseInsensitiveG</text>
   </a>
   <a xmlns:xlink="http://www.w3.org/1999/xlink"
       xlink:href="#caseInsensitiveE"
       xlink:title="caseInsensitiveE">
      <rect x="641" y="91" width="126" height="32"/>
      <rect x="639" y="89" width="126" height="32" class="nonterminal"/>
      <text class="nonterminal" x="649" y="109">caseInsensitiveE</text>
   </a>
   <a xmlns:xlink="http://www.w3.org/1999/xlink"
       xlink:href="#caseInsensitiveS"
       xlink:title="caseInsensitiveS">
      <rect x="787" y="91" width="126" height="32"/>
      <rect x="785" y="89" width="126" height="32" class="nonterminal"/>
      <text class="nonterminal" x="795" y="109">caseInsensitiveS</text>
   </a>
   <a xmlns:xlink="http://www.w3.org/1999/xlink"
       xlink:href="#caseInsensitiveT"
       xlink:title="caseInsensitiveT">
      <rect x="933" y="91" width="126" height="32"/>
      <rect x="931" y="89" width="126" height="32" class="nonterminal"/>
      <text class="nonterminal" x="941" y="109">caseInsensitiveT</text>
   </a>
   <a xmlns:xlink="http://www.w3.org/1999/xlink"
       xlink:href="#caseInsensitiveI"
       xlink:title="caseInsensitiveI">
      <rect x="1079" y="91" width="124" height="32"/>
      <rect x="1077" y="89" width="124" height="32" class="nonterminal"/>
      <text class="nonterminal" x="1087" y="109">caseInsensitiveI</text>
   </a>
   <a xmlns:xlink="http://www.w3.org/1999/xlink"
       xlink:href="#caseInsensitiveO"
       xlink:title="caseInsensitiveO">
      <rect x="1223" y="91" width="128" height="32"/>
      <rect x="1221" y="89" width="128" height="32" class="nonterminal"/>
      <text class="nonterminal" x="1231" y="109">caseInsensitiveO</text>
   </a>
   <a xmlns:xlink="http://www.w3.org/1999/xlink"
       xlink:href="#caseInsensitiveN"
       xlink:title="caseInsensitiveN">
      <rect x="1371" y="91" width="128" height="32"/>
      <rect x="1369" y="89" width="128" height="32" class="nonterminal"/>
      <text class="nonterminal" x="1379" y="109">caseInsensitiveN</text>
   </a>
   <path class="line"
          d="m17 17 h2 m20 0 h10 m126 0 h10 m0 0 h10 m126 0 h10 m0 0 h10 m126 0 h10 m0 0 h10 m128 0 h10 m0 0 h10 m126 0 h10 m0 0 h736 m-1488 0 h20 m1468 0 h20 m-1508 0 q10 0 10 10 m1488 0 q0 -10 10 -10 m-1498 10 v24 m1488 0 v-24 m-1488 24 q0 10 10 10 m1468 0 q10 0 10 -10 m-1478 10 h10 m132 0 h10 m0 0 h10 m126 0 h10 m0 0 h10 m126 0 h10 m0 0 h10 m128 0 h10 m0 0 h10 m124 0 h10 m0 0 h10 m128 0 h10 m0 0 h10 m128 0 h10 m0 0 h436 m-1478 -10 v20 m1488 0 v-20 m-1488 20 v24 m1488 0 v-24 m-1488 24 q0 10 10 10 m1468 0 q10 0 10 -10 m-1478 10 h10 m126 0 h10 m0 0 h10 m128 0 h10 m0 0 h10 m128 0 h10 m0 0 h10 m128 0 h10 m0 0 h10 m126 0 h10 m0 0 h10 m126 0 h10 m0 0 h10 m126 0 h10 m0 0 h10 m124 0 h10 m0 0 h10 m128 0 h10 m0 0 h10 m128 0 h10 m23 -88 h-3"/>
   <polygon points="1537 17 1545 13 1545 21"/>
   <polygon points="1537 17 1529 13 1529 21"/>
</svg>
