<?xml version="1.0" encoding="UTF-8"?>
<svg xmlns="http://www.w3.org/2000/svg" width="995" height="217">
   <defs>
      <style type="text/css">
    @namespace "http://www.w3.org/2000/svg";
    .line                 {fill: none; stroke: #332900; stroke-width: 1;}
    .bold-line            {stroke: #141000; shape-rendering: crispEdges; stroke-width: 2;}
    .thin-line            {stroke: #1F1800; shape-rendering: crispEdges}
    .filled               {fill: #332900; stroke: none;}
    text.terminal         {font-family: Verdana, Sans-serif;
                            font-size: 12px;
                            fill: #141000;
                            font-weight: bold;
                          }
    text.nonterminal      {font-family: Verdana, Sans-serif;
                            font-size: 12px;
                            fill: #1A1400;
                            font-weight: normal;
                          }
    text.regexp           {font-family: Verdana, Sans-serif;
                            font-size: 12px;
                            fill: #1F1800;
                            font-weight: normal;
                          }
    rect, circle, polygon {fill: #332900; stroke: #332900;}
    rect.terminal         {fill: #FFDB4D; stroke: #332900; stroke-width: 1;}
    rect.nonterminal      {fill: #FFEC9E; stroke: #332900; stroke-width: 1;}
    rect.text             {fill: none; stroke: none;}
    polygon.regexp        {fill: #FFF4C7; stroke: #332900; stroke-width: 1;}
  </style>
   </defs>
   <polygon points="9 17 1 13 1 21"/>
   <polygon points="17 17 9 13 9 21"/>
   <a xmlns:xlink="http://www.w3.org/1999/xlink"
       xlink:href="#caseInsensitiveA"
       xlink:title="caseInsensitiveA">
      <rect x="31" y="3" width="126" height="32"/>
      <rect x="29" y="1" width="126" height="32" class="nonterminal"/>
      <text class="nonterminal" x="39" y="21">caseInsensitiveA</text>
   </a>
   <a xmlns:xlink="http://www.w3.org/1999/xlink"
       xlink:href="#caseInsensitiveN"
       xlink:title="caseInsensitiveN">
      <rect x="177" y="3" width="128" height="32"/>
      <rect x="175" y="1" width="128" height="32" class="nonterminal"/>
      <text class="nonterminal" x="185" y="21">caseInsensitiveN</text>
   </a>
   <a xmlns:xlink="http://www.w3.org/1999/xlink"
       xlink:href="#caseInsensitiveA"
       xlink:title="caseInsensitiveA">
      <rect x="325" y="3" width="126" height="32"/>
      <rect x="323" y="1" width="126" height="32" class="nonterminal"/>
      <text class="nonterminal" x="333" y="21">caseInsensitiveA</text>
   </a>
   <a xmlns:xlink="http://www.w3.org/1999/xlink"
       xlink:href="#caseInsensitiveL"
       xlink:title="caseInsensitiveL">
      <rect x="471" y="3" width="126" height="32"/>
      <rect x="469" y="1" width="126" height="32" class="nonterminal"/>
      <text class="nonterminal" x="479" y="21">caseInsensitiveL</text>
   </a>
   <a xmlns:xlink="http://www.w3.org/1999/xlink"
       xlink:href="#caseInsensitiveY"
       xlink:title="caseInsensitiveY">
      <rect x="617" y="3" width="126" height="32"/>
      <rect x="615" y="1" width="126" height="32" class="nonterminal"/>
      <text class="nonterminal" x="625" y="21">caseInsensitiveY</text>
   </a>
   <a xmlns:xlink="http://www.w3.org/1999/xlink"
       xlink:href="#caseInsensitiveZ"
       xlink:title="caseInsensitiveZ">
      <rect x="763" y="3" width="126" height="32"/>
      <rect x="761" y="1" width="126" height="32" class="nonterminal"/>
      <text class="nonterminal" x="771" y="21">caseInsensitiveZ</text>
   </a>
   <a xmlns:xlink="http://www.w3.org/1999/xlink"
       xlink:href="#caseInsensitiveE"
       xlink:title="caseInsensitiveE">
      <rect x="25" y="85" width="126" height="32"/>
      <rect x="23" y="83" width="126" height="32" class="nonterminal"/>
      <text class="nonterminal" x="33" y="103">caseInsensitiveE</text>
   </a>
   <a xmlns:xlink="http://www.w3.org/1999/xlink"
       xlink:href="#caseInsensitiveR"
       xlink:title="caseInsensitiveR">
      <rect x="171" y="85" width="126" height="32"/>
      <rect x="169" y="83" width="126" height="32" class="nonterminal"/>
      <text class="nonterminal" x="179" y="103">caseInsensitiveR</text>
   </a>
   <a xmlns:xlink="http://www.w3.org/1999/xlink"
       xlink:href="#whitespace"
       xlink:title="whitespace">
      <rect x="317" y="85" width="90" height="32"/>
      <rect x="315" y="83" width="90" height="32" class="nonterminal"/>
      <text class="nonterminal" x="325" y="103">whitespace</text>
   </a>
   <a xmlns:xlink="http://www.w3.org/1999/xlink"
       xlink:href="#analyzerSeverity"
       xlink:title="analyzerSeverity">
      <rect x="427" y="85" width="126" height="32"/>
      <rect x="425" y="83" width="126" height="32" class="nonterminal"/>
      <text class="nonterminal" x="435" y="103">analyzerSeverity</text>
   </a>
   <a xmlns:xlink="http://www.w3.org/1999/xlink"
       xlink:href="#operandSeparator"
       xlink:title="operandSeparator">
      <rect x="573" y="85" width="136" height="32"/>
      <rect x="571" y="83" width="136" height="32" class="nonterminal"/>
      <text class="nonterminal" x="581" y="103">operandSeparator</text>
   </a>
   <a xmlns:xlink="http://www.w3.org/1999/xlink"
       xlink:href="#digit"
       xlink:title="digit">
      <rect x="749" y="85" width="48" height="32"/>
      <rect x="747" y="83" width="48" height="32" class="nonterminal"/>
      <text class="nonterminal" x="757" y="103">digit</text>
   </a>
   <a xmlns:xlink="http://www.w3.org/1999/xlink"
       xlink:href="#operandSeparator"
       xlink:title="operandSeparator">
      <rect x="837" y="85" width="136" height="32"/>
      <rect x="835" y="83" width="136" height="32" class="nonterminal"/>
      <text class="nonterminal" x="845" y="103">operandSeparator</text>
   </a>
   <a xmlns:xlink="http://www.w3.org/1999/xlink"
       xlink:href="#analyzerState"
       xlink:title="analyzerState">
      <rect x="663" y="151" width="108" height="32"/>
      <rect x="661" y="149" width="108" height="32" class="nonterminal"/>
      <text class="nonterminal" x="671" y="169">analyzerState</text>
   </a>
   <a xmlns:xlink="http://www.w3.org/1999/xlink"
       xlink:href="#operandSeparator"
       xlink:title="operandSeparator">
      <rect x="811" y="183" width="136" height="32"/>
      <rect x="809" y="181" width="136" height="32" class="nonterminal"/>
      <text class="nonterminal" x="819" y="201">operandSeparator</text>
   </a>
   <path class="line"
          d="m17 17 h2 m0 0 h10 m126 0 h10 m0 0 h10 m128 0 h10 m0 0 h10 m126 0 h10 m0 0 h10 m126 0 h10 m0 0 h10 m126 0 h10 m0 0 h10 m126 0 h10 m2 0 l2 0 m2 0 l2 0 m2 0 l2 0 m-908 82 l2 0 m2 0 l2 0 m2 0 l2 0 m2 0 h10 m126 0 h10 m0 0 h10 m126 0 h10 m0 0 h10 m90 0 h10 m0 0 h10 m126 0 h10 m0 0 h10 m136 0 h10 m20 0 h10 m48 0 h10 m-88 0 l20 0 m-1 0 q-9 0 -9 -10 l0 -12 q0 -10 10 -10 m68 32 l20 0 m-20 0 q10 0 10 -10 l0 -12 q0 -10 -10 -10 m-68 0 h10 m0 0 h58 m20 32 h10 m136 0 h10 m2 0 l2 0 m2 0 l2 0 m2 0 l2 0 m-354 66 l2 0 m2 0 l2 0 m2 0 l2 0 m2 0 h10 m108 0 h10 m20 0 h10 m0 0 h146 m-176 0 h20 m156 0 h20 m-196 0 q10 0 10 10 m176 0 q0 -10 10 -10 m-186 10 v12 m176 0 v-12 m-176 12 q0 10 10 10 m156 0 q10 0 10 -10 m-166 10 h10 m136 0 h10 m23 -32 h-3"/>
   <polygon points="985 165 993 161 993 169"/>
   <polygon points="985 165 977 161 977 169"/>
</svg>
