<?xml version="1.0" encoding="UTF-8"?>
<svg xmlns="http://www.w3.org/2000/svg" width="849" height="37">
   <defs>
      <style type="text/css">
    @namespace "http://www.w3.org/2000/svg";
    .line                 {fill: none; stroke: #332900; stroke-width: 1;}
    .bold-line            {stroke: #141000; shape-rendering: crispEdges; stroke-width: 2;}
    .thin-line            {stroke: #1F1800; shape-rendering: crispEdges}
    .filled               {fill: #332900; stroke: none;}
    text.terminal         {font-family: Verdana, Sans-serif;
                            font-size: 12px;
                            fill: #141000;
                            font-weight: bold;
                          }
    text.nonterminal      {font-family: Verdana, Sans-serif;
                            font-size: 12px;
                            fill: #1A1400;
                            font-weight: normal;
                          }
    text.regexp           {font-family: Verdana, Sans-serif;
                            font-size: 12px;
                            fill: #1F1800;
                            font-weight: normal;
                          }
    rect, circle, polygon {fill: #332900; stroke: #332900;}
    rect.terminal         {fill: #FFDB4D; stroke: #332900; stroke-width: 1;}
    rect.nonterminal      {fill: #FFEC9E; stroke: #332900; stroke-width: 1;}
    rect.text             {fill: none; stroke: none;}
    polygon.regexp        {fill: #FFF4C7; stroke: #332900; stroke-width: 1;}
  </style>
   </defs>
   <polygon points="9 17 1 13 1 21"/>
   <polygon points="17 17 9 13 9 21"/>
   <a xmlns:xlink="http://www.w3.org/1999/xlink"
       xlink:href="#caseInsensitiveM"
       xlink:title="caseInsensitiveM">
      <rect x="31" y="3" width="128" height="32"/>
      <rect x="29" y="1" width="128" height="32" class="nonterminal"/>
      <text class="nonterminal" x="39" y="21">caseInsensitiveM</text>
   </a>
   <a xmlns:xlink="http://www.w3.org/1999/xlink"
       xlink:href="#caseInsensitiveA"
       xlink:title="caseInsensitiveA">
      <rect x="179" y="3" width="126" height="32"/>
      <rect x="177" y="1" width="126" height="32" class="nonterminal"/>
      <text class="nonterminal" x="187" y="21">caseInsensitiveA</text>
   </a>
   <a xmlns:xlink="http://www.w3.org/1999/xlink"
       xlink:href="#caseInsensitiveC"
       xlink:title="caseInsensitiveC">
      <rect x="325" y="3" width="128" height="32"/>
      <rect x="323" y="1" width="128" height="32" class="nonterminal"/>
      <text class="nonterminal" x="333" y="21">caseInsensitiveC</text>
   </a>
   <a xmlns:xlink="http://www.w3.org/1999/xlink"
       xlink:href="#whitespaceChar"
       xlink:title="whitespaceChar">
      <rect x="473" y="3" width="120" height="32"/>
      <rect x="471" y="1" width="120" height="32" class="nonterminal"/>
      <text class="nonterminal" x="481" y="21">whitespaceChar</text>
   </a>
   <a xmlns:xlink="http://www.w3.org/1999/xlink"
       xlink:href="#freeText"
       xlink:title="freeText">
      <rect x="613" y="3" width="72" height="32"/>
      <rect x="611" y="1" width="72" height="32" class="nonterminal"/>
      <text class="nonterminal" x="621" y="21">freeText</text>
   </a>
   <rect x="705" y="3" width="24" height="32" rx="10"/>
   <rect x="703"
          y="1"
          width="24"
          height="32"
          class="terminal"
          rx="10"/>
   <text class="terminal" x="713" y="21">,</text>
   <a xmlns:xlink="http://www.w3.org/1999/xlink"
       xlink:href="#freeText"
       xlink:title="freeText">
      <rect x="749" y="3" width="72" height="32"/>
      <rect x="747" y="1" width="72" height="32" class="nonterminal"/>
      <text class="nonterminal" x="757" y="21">freeText</text>
   </a>
   <path class="line"
          d="m17 17 h2 m0 0 h10 m128 0 h10 m0 0 h10 m126 0 h10 m0 0 h10 m128 0 h10 m0 0 h10 m120 0 h10 m0 0 h10 m72 0 h10 m0 0 h10 m24 0 h10 m0 0 h10 m72 0 h10 m3 0 h-3"/>
   <polygon points="839 17 847 13 847 21"/>
   <polygon points="839 17 831 13 831 21"/>
</svg>
