<?xml version="1.0" encoding="UTF-8"?>
<svg xmlns="http://www.w3.org/2000/svg" width="439" height="145">
   <defs>
      <style type="text/css">
    @namespace "http://www.w3.org/2000/svg";
    .line                 {fill: none; stroke: #332900; stroke-width: 1;}
    .bold-line            {stroke: #141000; shape-rendering: crispEdges; stroke-width: 2;}
    .thin-line            {stroke: #1F1800; shape-rendering: crispEdges}
    .filled               {fill: #332900; stroke: none;}
    text.terminal         {font-family: Verdana, Sans-serif;
                            font-size: 12px;
                            fill: #141000;
                            font-weight: bold;
                          }
    text.nonterminal      {font-family: Verdana, Sans-serif;
                            font-size: 12px;
                            fill: #1A1400;
                            font-weight: normal;
                          }
    text.regexp           {font-family: Verdana, Sans-serif;
                            font-size: 12px;
                            fill: #1F1800;
                            font-weight: normal;
                          }
    rect, circle, polygon {fill: #332900; stroke: #332900;}
    rect.terminal         {fill: #FFDB4D; stroke: #332900; stroke-width: 1;}
    rect.nonterminal      {fill: #FFEC9E; stroke: #332900; stroke-width: 1;}
    rect.text             {fill: none; stroke: none;}
    polygon.regexp        {fill: #FFF4C7; stroke: #332900; stroke-width: 1;}
  </style>
   </defs>
   <polygon points="9 17 1 13 1 21"/>
   <polygon points="17 17 9 13 9 21"/>
   <a xmlns:xlink="http://www.w3.org/1999/xlink"
       xlink:href="#decimalNumber"
       xlink:title="decimalNumber">
      <rect x="51" y="3" width="118" height="32"/>
      <rect x="49" y="1" width="118" height="32" class="nonterminal"/>
      <text class="nonterminal" x="59" y="21">decimalNumber</text>
   </a>
   <rect x="189" y="3" width="24" height="32" rx="10"/>
   <rect x="187"
          y="1"
          width="24"
          height="32"
          class="terminal"
          rx="10"/>
   <text class="terminal" x="197" y="21">.</text>
   <a xmlns:xlink="http://www.w3.org/1999/xlink"
       xlink:href="#decimalNumber"
       xlink:title="decimalNumber">
      <rect x="253" y="35" width="118" height="32"/>
      <rect x="251" y="33" width="118" height="32" class="nonterminal"/>
      <text class="nonterminal" x="261" y="53">decimalNumber</text>
   </a>
   <a xmlns:xlink="http://www.w3.org/1999/xlink"
       xlink:href="#decimalNumber"
       xlink:title="decimalNumber">
      <rect x="71" y="111" width="118" height="32"/>
      <rect x="69" y="109" width="118" height="32" class="nonterminal"/>
      <text class="nonterminal" x="79" y="129">decimalNumber</text>
   </a>
   <rect x="229" y="79" width="24" height="32" rx="10"/>
   <rect x="227"
          y="77"
          width="24"
          height="32"
          class="terminal"
          rx="10"/>
   <text class="terminal" x="237" y="97">.</text>
   <a xmlns:xlink="http://www.w3.org/1999/xlink"
       xlink:href="#decimalNumber"
       xlink:title="decimalNumber">
      <rect x="273" y="79" width="118" height="32"/>
      <rect x="271" y="77" width="118" height="32" class="nonterminal"/>
      <text class="nonterminal" x="281" y="97">decimalNumber</text>
   </a>
   <path class="line"
          d="m17 17 h2 m20 0 h10 m118 0 h10 m0 0 h10 m24 0 h10 m20 0 h10 m0 0 h128 m-158 0 h20 m138 0 h20 m-178 0 q10 0 10 10 m158 0 q0 -10 10 -10 m-168 10 v12 m158 0 v-12 m-158 12 q0 10 10 10 m138 0 q10 0 10 -10 m-148 10 h10 m118 0 h10 m-360 -32 h20 m360 0 h20 m-400 0 q10 0 10 10 m380 0 q0 -10 10 -10 m-390 10 v56 m380 0 v-56 m-380 56 q0 10 10 10 m360 0 q10 0 10 -10 m-350 10 h10 m0 0 h128 m-158 0 h20 m138 0 h20 m-178 0 q10 0 10 10 m158 0 q0 -10 10 -10 m-168 10 v12 m158 0 v-12 m-158 12 q0 10 10 10 m138 0 q10 0 10 -10 m-148 10 h10 m118 0 h10 m20 -32 h10 m24 0 h10 m0 0 h10 m118 0 h10 m23 -76 h-3"/>
   <polygon points="429 17 437 13 437 21"/>
   <polygon points="429 17 421 13 421 21"/>
</svg>
