<?xml version="1.0" encoding="UTF-8"?>
<svg xmlns="http://www.w3.org/2000/svg" width="147" height="565">
   <defs>
      <style type="text/css">
    @namespace "http://www.w3.org/2000/svg";
    .line                 {fill: none; stroke: #332900; stroke-width: 1;}
    .bold-line            {stroke: #141000; shape-rendering: crispEdges; stroke-width: 2;}
    .thin-line            {stroke: #1F1800; shape-rendering: crispEdges}
    .filled               {fill: #332900; stroke: none;}
    text.terminal         {font-family: Verdana, Sans-serif;
                            font-size: 12px;
                            fill: #141000;
                            font-weight: bold;
                          }
    text.nonterminal      {font-family: Verdana, Sans-serif;
                            font-size: 12px;
                            fill: #1A1400;
                            font-weight: normal;
                          }
    text.regexp           {font-family: Verdana, Sans-serif;
                            font-size: 12px;
                            fill: #1F1800;
                            font-weight: normal;
                          }
    rect, circle, polygon {fill: #332900; stroke: #332900;}
    rect.terminal         {fill: #FFDB4D; stroke: #332900; stroke-width: 1;}
    rect.nonterminal      {fill: #FFEC9E; stroke: #332900; stroke-width: 1;}
    rect.text             {fill: none; stroke: none;}
    polygon.regexp        {fill: #FFF4C7; stroke: #332900; stroke-width: 1;}
  </style>
   </defs>
   <polygon points="9 17 1 13 1 21"/>
   <polygon points="17 17 9 13 9 21"/>
   <a xmlns:xlink="http://www.w3.org/1999/xlink"
       xlink:href="#digit"
       xlink:title="digit">
      <rect x="51" y="3" width="48" height="32"/>
      <rect x="49" y="1" width="48" height="32" class="nonterminal"/>
      <text class="nonterminal" x="59" y="21">digit</text>
   </a>
   <rect x="51" y="47" width="28" height="32" rx="10"/>
   <rect x="49"
          y="45"
          width="28"
          height="32"
          class="terminal"
          rx="10"/>
   <text class="terminal" x="59" y="65">a</text>
   <rect x="51" y="91" width="28" height="32" rx="10"/>
   <rect x="49"
          y="89"
          width="28"
          height="32"
          class="terminal"
          rx="10"/>
   <text class="terminal" x="59" y="109">b</text>
   <rect x="51" y="135" width="26" height="32" rx="10"/>
   <rect x="49"
          y="133"
          width="26"
          height="32"
          class="terminal"
          rx="10"/>
   <text class="terminal" x="59" y="153">c</text>
   <rect x="51" y="179" width="28" height="32" rx="10"/>
   <rect x="49"
          y="177"
          width="28"
          height="32"
          class="terminal"
          rx="10"/>
   <text class="terminal" x="59" y="197">d</text>
   <rect x="51" y="223" width="28" height="32" rx="10"/>
   <rect x="49"
          y="221"
          width="28"
          height="32"
          class="terminal"
          rx="10"/>
   <text class="terminal" x="59" y="241">e</text>
   <rect x="51" y="267" width="24" height="32" rx="10"/>
   <rect x="49"
          y="265"
          width="24"
          height="32"
          class="terminal"
          rx="10"/>
   <text class="terminal" x="59" y="285">f</text>
   <rect x="51" y="311" width="28" height="32" rx="10"/>
   <rect x="49"
          y="309"
          width="28"
          height="32"
          class="terminal"
          rx="10"/>
   <text class="terminal" x="59" y="329">A</text>
   <rect x="51" y="355" width="28" height="32" rx="10"/>
   <rect x="49"
          y="353"
          width="28"
          height="32"
          class="terminal"
          rx="10"/>
   <text class="terminal" x="59" y="373">B</text>
   <rect x="51" y="399" width="28" height="32" rx="10"/>
   <rect x="49"
          y="397"
          width="28"
          height="32"
          class="terminal"
          rx="10"/>
   <text class="terminal" x="59" y="417">C</text>
   <rect x="51" y="443" width="30" height="32" rx="10"/>
   <rect x="49"
          y="441"
          width="30"
          height="32"
          class="terminal"
          rx="10"/>
   <text class="terminal" x="59" y="461">D</text>
   <rect x="51" y="487" width="28" height="32" rx="10"/>
   <rect x="49"
          y="485"
          width="28"
          height="32"
          class="terminal"
          rx="10"/>
   <text class="terminal" x="59" y="505">E</text>
   <rect x="51" y="531" width="28" height="32" rx="10"/>
   <rect x="49"
          y="529"
          width="28"
          height="32"
          class="terminal"
          rx="10"/>
   <text class="terminal" x="59" y="549">F</text>
   <path class="line"
          d="m17 17 h2 m20 0 h10 m48 0 h10 m-88 0 h20 m68 0 h20 m-108 0 q10 0 10 10 m88 0 q0 -10 10 -10 m-98 10 v24 m88 0 v-24 m-88 24 q0 10 10 10 m68 0 q10 0 10 -10 m-78 10 h10 m28 0 h10 m0 0 h20 m-78 -10 v20 m88 0 v-20 m-88 20 v24 m88 0 v-24 m-88 24 q0 10 10 10 m68 0 q10 0 10 -10 m-78 10 h10 m28 0 h10 m0 0 h20 m-78 -10 v20 m88 0 v-20 m-88 20 v24 m88 0 v-24 m-88 24 q0 10 10 10 m68 0 q10 0 10 -10 m-78 10 h10 m26 0 h10 m0 0 h22 m-78 -10 v20 m88 0 v-20 m-88 20 v24 m88 0 v-24 m-88 24 q0 10 10 10 m68 0 q10 0 10 -10 m-78 10 h10 m28 0 h10 m0 0 h20 m-78 -10 v20 m88 0 v-20 m-88 20 v24 m88 0 v-24 m-88 24 q0 10 10 10 m68 0 q10 0 10 -10 m-78 10 h10 m28 0 h10 m0 0 h20 m-78 -10 v20 m88 0 v-20 m-88 20 v24 m88 0 v-24 m-88 24 q0 10 10 10 m68 0 q10 0 10 -10 m-78 10 h10 m24 0 h10 m0 0 h24 m-78 -10 v20 m88 0 v-20 m-88 20 v24 m88 0 v-24 m-88 24 q0 10 10 10 m68 0 q10 0 10 -10 m-78 10 h10 m28 0 h10 m0 0 h20 m-78 -10 v20 m88 0 v-20 m-88 20 v24 m88 0 v-24 m-88 24 q0 10 10 10 m68 0 q10 0 10 -10 m-78 10 h10 m28 0 h10 m0 0 h20 m-78 -10 v20 m88 0 v-20 m-88 20 v24 m88 0 v-24 m-88 24 q0 10 10 10 m68 0 q10 0 10 -10 m-78 10 h10 m28 0 h10 m0 0 h20 m-78 -10 v20 m88 0 v-20 m-88 20 v24 m88 0 v-24 m-88 24 q0 10 10 10 m68 0 q10 0 10 -10 m-78 10 h10 m30 0 h10 m0 0 h18 m-78 -10 v20 m88 0 v-20 m-88 20 v24 m88 0 v-24 m-88 24 q0 10 10 10 m68 0 q10 0 10 -10 m-78 10 h10 m28 0 h10 m0 0 h20 m-78 -10 v20 m88 0 v-20 m-88 20 v24 m88 0 v-24 m-88 24 q0 10 10 10 m68 0 q10 0 10 -10 m-78 10 h10 m28 0 h10 m0 0 h20 m23 -528 h-3"/>
   <polygon points="137 17 145 13 145 21"/>
   <polygon points="137 17 129 13 129 21"/>
</svg>
