<?xml version="1.0" encoding="UTF-8"?>
<svg xmlns="http://www.w3.org/2000/svg" width="133" height="2281">
   <defs>
      <style type="text/css">
    @namespace "http://www.w3.org/2000/svg";
    .line                 {fill: none; stroke: #332900; stroke-width: 1;}
    .bold-line            {stroke: #141000; shape-rendering: crispEdges; stroke-width: 2;}
    .thin-line            {stroke: #1F1800; shape-rendering: crispEdges}
    .filled               {fill: #332900; stroke: none;}
    text.terminal         {font-family: Verdana, Sans-serif;
                            font-size: 12px;
                            fill: #141000;
                            font-weight: bold;
                          }
    text.nonterminal      {font-family: Verdana, Sans-serif;
                            font-size: 12px;
                            fill: #1A1400;
                            font-weight: normal;
                          }
    text.regexp           {font-family: Verdana, Sans-serif;
                            font-size: 12px;
                            fill: #1F1800;
                            font-weight: normal;
                          }
    rect, circle, polygon {fill: #332900; stroke: #332900;}
    rect.terminal         {fill: #FFDB4D; stroke: #332900; stroke-width: 1;}
    rect.nonterminal      {fill: #FFEC9E; stroke: #332900; stroke-width: 1;}
    rect.text             {fill: none; stroke: none;}
    polygon.regexp        {fill: #FFF4C7; stroke: #332900; stroke-width: 1;}
  </style>
   </defs>
   <polygon points="9 17 1 13 1 21"/>
   <polygon points="17 17 9 13 9 21"/>
   <rect x="51" y="3" width="28" height="32" rx="10"/>
   <rect x="49"
          y="1"
          width="28"
          height="32"
          class="terminal"
          rx="10"/>
   <text class="terminal" x="59" y="21">A</text>
   <rect x="51" y="47" width="28" height="32" rx="10"/>
   <rect x="49"
          y="45"
          width="28"
          height="32"
          class="terminal"
          rx="10"/>
   <text class="terminal" x="59" y="65">B</text>
   <rect x="51" y="91" width="28" height="32" rx="10"/>
   <rect x="49"
          y="89"
          width="28"
          height="32"
          class="terminal"
          rx="10"/>
   <text class="terminal" x="59" y="109">C</text>
   <rect x="51" y="135" width="30" height="32" rx="10"/>
   <rect x="49"
          y="133"
          width="30"
          height="32"
          class="terminal"
          rx="10"/>
   <text class="terminal" x="59" y="153">D</text>
   <rect x="51" y="179" width="28" height="32" rx="10"/>
   <rect x="49"
          y="177"
          width="28"
          height="32"
          class="terminal"
          rx="10"/>
   <text class="terminal" x="59" y="197">E</text>
   <rect x="51" y="223" width="28" height="32" rx="10"/>
   <rect x="49"
          y="221"
          width="28"
          height="32"
          class="terminal"
          rx="10"/>
   <text class="terminal" x="59" y="241">F</text>
   <rect x="51" y="267" width="30" height="32" rx="10"/>
   <rect x="49"
          y="265"
          width="30"
          height="32"
          class="terminal"
          rx="10"/>
   <text class="terminal" x="59" y="285">G</text>
   <rect x="51" y="311" width="30" height="32" rx="10"/>
   <rect x="49"
          y="309"
          width="30"
          height="32"
          class="terminal"
          rx="10"/>
   <text class="terminal" x="59" y="329">H</text>
   <rect x="51" y="355" width="26" height="32" rx="10"/>
   <rect x="49"
          y="353"
          width="26"
          height="32"
          class="terminal"
          rx="10"/>
   <text class="terminal" x="59" y="373">I</text>
   <rect x="51" y="399" width="26" height="32" rx="10"/>
   <rect x="49"
          y="397"
          width="26"
          height="32"
          class="terminal"
          rx="10"/>
   <text class="terminal" x="59" y="417">J</text>
   <rect x="51" y="443" width="28" height="32" rx="10"/>
   <rect x="49"
          y="441"
          width="28"
          height="32"
          class="terminal"
          rx="10"/>
   <text class="terminal" x="59" y="461">K</text>
   <rect x="51" y="487" width="28" height="32" rx="10"/>
   <rect x="49"
          y="485"
          width="28"
          height="32"
          class="terminal"
          rx="10"/>
   <text class="terminal" x="59" y="505">L</text>
   <rect x="51" y="531" width="30" height="32" rx="10"/>
   <rect x="49"
          y="529"
          width="30"
          height="32"
          class="terminal"
          rx="10"/>
   <text class="terminal" x="59" y="549">M</text>
   <rect x="51" y="575" width="30" height="32" rx="10"/>
   <rect x="49"
          y="573"
          width="30"
          height="32"
          class="terminal"
          rx="10"/>
   <text class="terminal" x="59" y="593">N</text>
   <rect x="51" y="619" width="30" height="32" rx="10"/>
   <rect x="49"
          y="617"
          width="30"
          height="32"
          class="terminal"
          rx="10"/>
   <text class="terminal" x="59" y="637">O</text>
   <rect x="51" y="663" width="28" height="32" rx="10"/>
   <rect x="49"
          y="661"
          width="28"
          height="32"
          class="terminal"
          rx="10"/>
   <text class="terminal" x="59" y="681">P</text>
   <rect x="51" y="707" width="30" height="32" rx="10"/>
   <rect x="49"
          y="705"
          width="30"
          height="32"
          class="terminal"
          rx="10"/>
   <text class="terminal" x="59" y="725">Q</text>
   <rect x="51" y="751" width="28" height="32" rx="10"/>
   <rect x="49"
          y="749"
          width="28"
          height="32"
          class="terminal"
          rx="10"/>
   <text class="terminal" x="59" y="769">R</text>
   <rect x="51" y="795" width="28" height="32" rx="10"/>
   <rect x="49"
          y="793"
          width="28"
          height="32"
          class="terminal"
          rx="10"/>
   <text class="terminal" x="59" y="813">S</text>
   <rect x="51" y="839" width="28" height="32" rx="10"/>
   <rect x="49"
          y="837"
          width="28"
          height="32"
          class="terminal"
          rx="10"/>
   <text class="terminal" x="59" y="857">T</text>
   <rect x="51" y="883" width="30" height="32" rx="10"/>
   <rect x="49"
          y="881"
          width="30"
          height="32"
          class="terminal"
          rx="10"/>
   <text class="terminal" x="59" y="901">U</text>
   <rect x="51" y="927" width="28" height="32" rx="10"/>
   <rect x="49"
          y="925"
          width="28"
          height="32"
          class="terminal"
          rx="10"/>
   <text class="terminal" x="59" y="945">V</text>
   <rect x="51" y="971" width="34" height="32" rx="10"/>
   <rect x="49"
          y="969"
          width="34"
          height="32"
          class="terminal"
          rx="10"/>
   <text class="terminal" x="59" y="989">W</text>
   <rect x="51" y="1015" width="28" height="32" rx="10"/>
   <rect x="49"
          y="1013"
          width="28"
          height="32"
          class="terminal"
          rx="10"/>
   <text class="terminal" x="59" y="1033">X</text>
   <rect x="51" y="1059" width="28" height="32" rx="10"/>
   <rect x="49"
          y="1057"
          width="28"
          height="32"
          class="terminal"
          rx="10"/>
   <text class="terminal" x="59" y="1077">Y</text>
   <rect x="51" y="1103" width="28" height="32" rx="10"/>
   <rect x="49"
          y="1101"
          width="28"
          height="32"
          class="terminal"
          rx="10"/>
   <text class="terminal" x="59" y="1121">Z</text>
   <rect x="51" y="1147" width="28" height="32" rx="10"/>
   <rect x="49"
          y="1145"
          width="28"
          height="32"
          class="terminal"
          rx="10"/>
   <text class="terminal" x="59" y="1165">a</text>
   <rect x="51" y="1191" width="28" height="32" rx="10"/>
   <rect x="49"
          y="1189"
          width="28"
          height="32"
          class="terminal"
          rx="10"/>
   <text class="terminal" x="59" y="1209">b</text>
   <rect x="51" y="1235" width="26" height="32" rx="10"/>
   <rect x="49"
          y="1233"
          width="26"
          height="32"
          class="terminal"
          rx="10"/>
   <text class="terminal" x="59" y="1253">c</text>
   <rect x="51" y="1279" width="28" height="32" rx="10"/>
   <rect x="49"
          y="1277"
          width="28"
          height="32"
          class="terminal"
          rx="10"/>
   <text class="terminal" x="59" y="1297">d</text>
   <rect x="51" y="1323" width="28" height="32" rx="10"/>
   <rect x="49"
          y="1321"
          width="28"
          height="32"
          class="terminal"
          rx="10"/>
   <text class="terminal" x="59" y="1341">e</text>
   <rect x="51" y="1367" width="24" height="32" rx="10"/>
   <rect x="49"
          y="1365"
          width="24"
          height="32"
          class="terminal"
          rx="10"/>
   <text class="terminal" x="59" y="1385">f</text>
   <rect x="51" y="1411" width="28" height="32" rx="10"/>
   <rect x="49"
          y="1409"
          width="28"
          height="32"
          class="terminal"
          rx="10"/>
   <text class="terminal" x="59" y="1429">g</text>
   <rect x="51" y="1455" width="28" height="32" rx="10"/>
   <rect x="49"
          y="1453"
          width="28"
          height="32"
          class="terminal"
          rx="10"/>
   <text class="terminal" x="59" y="1473">h</text>
   <rect x="51" y="1499" width="24" height="32" rx="10"/>
   <rect x="49"
          y="1497"
          width="24"
          height="32"
          class="terminal"
          rx="10"/>
   <text class="terminal" x="59" y="1517">i</text>
   <rect x="51" y="1543" width="24" height="32" rx="10"/>
   <rect x="49"
          y="1541"
          width="24"
          height="32"
          class="terminal"
          rx="10"/>
   <text class="terminal" x="59" y="1561">j</text>
   <rect x="51" y="1587" width="28" height="32" rx="10"/>
   <rect x="49"
          y="1585"
          width="28"
          height="32"
          class="terminal"
          rx="10"/>
   <text class="terminal" x="59" y="1605">k</text>
   <rect x="51" y="1631" width="24" height="32" rx="10"/>
   <rect x="49"
          y="1629"
          width="24"
          height="32"
          class="terminal"
          rx="10"/>
   <text class="terminal" x="59" y="1649">l</text>
   <rect x="51" y="1675" width="32" height="32" rx="10"/>
   <rect x="49"
          y="1673"
          width="32"
          height="32"
          class="terminal"
          rx="10"/>
   <text class="terminal" x="59" y="1693">m</text>
   <rect x="51" y="1719" width="28" height="32" rx="10"/>
   <rect x="49"
          y="1717"
          width="28"
          height="32"
          class="terminal"
          rx="10"/>
   <text class="terminal" x="59" y="1737">n</text>
   <rect x="51" y="1763" width="28" height="32" rx="10"/>
   <rect x="49"
          y="1761"
          width="28"
          height="32"
          class="terminal"
          rx="10"/>
   <text class="terminal" x="59" y="1781">o</text>
   <rect x="51" y="1807" width="28" height="32" rx="10"/>
   <rect x="49"
          y="1805"
          width="28"
          height="32"
          class="terminal"
          rx="10"/>
   <text class="terminal" x="59" y="1825">p</text>
   <rect x="51" y="1851" width="28" height="32" rx="10"/>
   <rect x="49"
          y="1849"
          width="28"
          height="32"
          class="terminal"
          rx="10"/>
   <text class="terminal" x="59" y="1869">q</text>
   <rect x="51" y="1895" width="26" height="32" rx="10"/>
   <rect x="49"
          y="1893"
          width="26"
          height="32"
          class="terminal"
          rx="10"/>
   <text class="terminal" x="59" y="1913">r</text>
   <rect x="51" y="1939" width="26" height="32" rx="10"/>
   <rect x="49"
          y="1937"
          width="26"
          height="32"
          class="terminal"
          rx="10"/>
   <text class="terminal" x="59" y="1957">s</text>
   <rect x="51" y="1983" width="24" height="32" rx="10"/>
   <rect x="49"
          y="1981"
          width="24"
          height="32"
          class="terminal"
          rx="10"/>
   <text class="terminal" x="59" y="2001">t</text>
   <rect x="51" y="2027" width="28" height="32" rx="10"/>
   <rect x="49"
          y="2025"
          width="28"
          height="32"
          class="terminal"
          rx="10"/>
   <text class="terminal" x="59" y="2045">u</text>
   <rect x="51" y="2071" width="28" height="32" rx="10"/>
   <rect x="49"
          y="2069"
          width="28"
          height="32"
          class="terminal"
          rx="10"/>
   <text class="terminal" x="59" y="2089">v</text>
   <rect x="51" y="2115" width="32" height="32" rx="10"/>
   <rect x="49"
          y="2113"
          width="32"
          height="32"
          class="terminal"
          rx="10"/>
   <text class="terminal" x="59" y="2133">w</text>
   <rect x="51" y="2159" width="28" height="32" rx="10"/>
   <rect x="49"
          y="2157"
          width="28"
          height="32"
          class="terminal"
          rx="10"/>
   <text class="terminal" x="59" y="2177">x</text>
   <rect x="51" y="2203" width="28" height="32" rx="10"/>
   <rect x="49"
          y="2201"
          width="28"
          height="32"
          class="terminal"
          rx="10"/>
   <text class="terminal" x="59" y="2221">y</text>
   <rect x="51" y="2247" width="26" height="32" rx="10"/>
   <rect x="49"
          y="2245"
          width="26"
          height="32"
          class="terminal"
          rx="10"/>
   <text class="terminal" x="59" y="2265">z</text>
   <path class="line"
          d="m17 17 h2 m20 0 h10 m28 0 h10 m0 0 h6 m-74 0 h20 m54 0 h20 m-94 0 q10 0 10 10 m74 0 q0 -10 10 -10 m-84 10 v24 m74 0 v-24 m-74 24 q0 10 10 10 m54 0 q10 0 10 -10 m-64 10 h10 m28 0 h10 m0 0 h6 m-64 -10 v20 m74 0 v-20 m-74 20 v24 m74 0 v-24 m-74 24 q0 10 10 10 m54 0 q10 0 10 -10 m-64 10 h10 m28 0 h10 m0 0 h6 m-64 -10 v20 m74 0 v-20 m-74 20 v24 m74 0 v-24 m-74 24 q0 10 10 10 m54 0 q10 0 10 -10 m-64 10 h10 m30 0 h10 m0 0 h4 m-64 -10 v20 m74 0 v-20 m-74 20 v24 m74 0 v-24 m-74 24 q0 10 10 10 m54 0 q10 0 10 -10 m-64 10 h10 m28 0 h10 m0 0 h6 m-64 -10 v20 m74 0 v-20 m-74 20 v24 m74 0 v-24 m-74 24 q0 10 10 10 m54 0 q10 0 10 -10 m-64 10 h10 m28 0 h10 m0 0 h6 m-64 -10 v20 m74 0 v-20 m-74 20 v24 m74 0 v-24 m-74 24 q0 10 10 10 m54 0 q10 0 10 -10 m-64 10 h10 m30 0 h10 m0 0 h4 m-64 -10 v20 m74 0 v-20 m-74 20 v24 m74 0 v-24 m-74 24 q0 10 10 10 m54 0 q10 0 10 -10 m-64 10 h10 m30 0 h10 m0 0 h4 m-64 -10 v20 m74 0 v-20 m-74 20 v24 m74 0 v-24 m-74 24 q0 10 10 10 m54 0 q10 0 10 -10 m-64 10 h10 m26 0 h10 m0 0 h8 m-64 -10 v20 m74 0 v-20 m-74 20 v24 m74 0 v-24 m-74 24 q0 10 10 10 m54 0 q10 0 10 -10 m-64 10 h10 m26 0 h10 m0 0 h8 m-64 -10 v20 m74 0 v-20 m-74 20 v24 m74 0 v-24 m-74 24 q0 10 10 10 m54 0 q10 0 10 -10 m-64 10 h10 m28 0 h10 m0 0 h6 m-64 -10 v20 m74 0 v-20 m-74 20 v24 m74 0 v-24 m-74 24 q0 10 10 10 m54 0 q10 0 10 -10 m-64 10 h10 m28 0 h10 m0 0 h6 m-64 -10 v20 m74 0 v-20 m-74 20 v24 m74 0 v-24 m-74 24 q0 10 10 10 m54 0 q10 0 10 -10 m-64 10 h10 m30 0 h10 m0 0 h4 m-64 -10 v20 m74 0 v-20 m-74 20 v24 m74 0 v-24 m-74 24 q0 10 10 10 m54 0 q10 0 10 -10 m-64 10 h10 m30 0 h10 m0 0 h4 m-64 -10 v20 m74 0 v-20 m-74 20 v24 m74 0 v-24 m-74 24 q0 10 10 10 m54 0 q10 0 10 -10 m-64 10 h10 m30 0 h10 m0 0 h4 m-64 -10 v20 m74 0 v-20 m-74 20 v24 m74 0 v-24 m-74 24 q0 10 10 10 m54 0 q10 0 10 -10 m-64 10 h10 m28 0 h10 m0 0 h6 m-64 -10 v20 m74 0 v-20 m-74 20 v24 m74 0 v-24 m-74 24 q0 10 10 10 m54 0 q10 0 10 -10 m-64 10 h10 m30 0 h10 m0 0 h4 m-64 -10 v20 m74 0 v-20 m-74 20 v24 m74 0 v-24 m-74 24 q0 10 10 10 m54 0 q10 0 10 -10 m-64 10 h10 m28 0 h10 m0 0 h6 m-64 -10 v20 m74 0 v-20 m-74 20 v24 m74 0 v-24 m-74 24 q0 10 10 10 m54 0 q10 0 10 -10 m-64 10 h10 m28 0 h10 m0 0 h6 m-64 -10 v20 m74 0 v-20 m-74 20 v24 m74 0 v-24 m-74 24 q0 10 10 10 m54 0 q10 0 10 -10 m-64 10 h10 m28 0 h10 m0 0 h6 m-64 -10 v20 m74 0 v-20 m-74 20 v24 m74 0 v-24 m-74 24 q0 10 10 10 m54 0 q10 0 10 -10 m-64 10 h10 m30 0 h10 m0 0 h4 m-64 -10 v20 m74 0 v-20 m-74 20 v24 m74 0 v-24 m-74 24 q0 10 10 10 m54 0 q10 0 10 -10 m-64 10 h10 m28 0 h10 m0 0 h6 m-64 -10 v20 m74 0 v-20 m-74 20 v24 m74 0 v-24 m-74 24 q0 10 10 10 m54 0 q10 0 10 -10 m-64 10 h10 m34 0 h10 m-64 -10 v20 m74 0 v-20 m-74 20 v24 m74 0 v-24 m-74 24 q0 10 10 10 m54 0 q10 0 10 -10 m-64 10 h10 m28 0 h10 m0 0 h6 m-64 -10 v20 m74 0 v-20 m-74 20 v24 m74 0 v-24 m-74 24 q0 10 10 10 m54 0 q10 0 10 -10 m-64 10 h10 m28 0 h10 m0 0 h6 m-64 -10 v20 m74 0 v-20 m-74 20 v24 m74 0 v-24 m-74 24 q0 10 10 10 m54 0 q10 0 10 -10 m-64 10 h10 m28 0 h10 m0 0 h6 m-64 -10 v20 m74 0 v-20 m-74 20 v24 m74 0 v-24 m-74 24 q0 10 10 10 m54 0 q10 0 10 -10 m-64 10 h10 m28 0 h10 m0 0 h6 m-64 -10 v20 m74 0 v-20 m-74 20 v24 m74 0 v-24 m-74 24 q0 10 10 10 m54 0 q10 0 10 -10 m-64 10 h10 m28 0 h10 m0 0 h6 m-64 -10 v20 m74 0 v-20 m-74 20 v24 m74 0 v-24 m-74 24 q0 10 10 10 m54 0 q10 0 10 -10 m-64 10 h10 m26 0 h10 m0 0 h8 m-64 -10 v20 m74 0 v-20 m-74 20 v24 m74 0 v-24 m-74 24 q0 10 10 10 m54 0 q10 0 10 -10 m-64 10 h10 m28 0 h10 m0 0 h6 m-64 -10 v20 m74 0 v-20 m-74 20 v24 m74 0 v-24 m-74 24 q0 10 10 10 m54 0 q10 0 10 -10 m-64 10 h10 m28 0 h10 m0 0 h6 m-64 -10 v20 m74 0 v-20 m-74 20 v24 m74 0 v-24 m-74 24 q0 10 10 10 m54 0 q10 0 10 -10 m-64 10 h10 m24 0 h10 m0 0 h10 m-64 -10 v20 m74 0 v-20 m-74 20 v24 m74 0 v-24 m-74 24 q0 10 10 10 m54 0 q10 0 10 -10 m-64 10 h10 m28 0 h10 m0 0 h6 m-64 -10 v20 m74 0 v-20 m-74 20 v24 m74 0 v-24 m-74 24 q0 10 10 10 m54 0 q10 0 10 -10 m-64 10 h10 m28 0 h10 m0 0 h6 m-64 -10 v20 m74 0 v-20 m-74 20 v24 m74 0 v-24 m-74 24 q0 10 10 10 m54 0 q10 0 10 -10 m-64 10 h10 m24 0 h10 m0 0 h10 m-64 -10 v20 m74 0 v-20 m-74 20 v24 m74 0 v-24 m-74 24 q0 10 10 10 m54 0 q10 0 10 -10 m-64 10 h10 m24 0 h10 m0 0 h10 m-64 -10 v20 m74 0 v-20 m-74 20 v24 m74 0 v-24 m-74 24 q0 10 10 10 m54 0 q10 0 10 -10 m-64 10 h10 m28 0 h10 m0 0 h6 m-64 -10 v20 m74 0 v-20 m-74 20 v24 m74 0 v-24 m-74 24 q0 10 10 10 m54 0 q10 0 10 -10 m-64 10 h10 m24 0 h10 m0 0 h10 m-64 -10 v20 m74 0 v-20 m-74 20 v24 m74 0 v-24 m-74 24 q0 10 10 10 m54 0 q10 0 10 -10 m-64 10 h10 m32 0 h10 m0 0 h2 m-64 -10 v20 m74 0 v-20 m-74 20 v24 m74 0 v-24 m-74 24 q0 10 10 10 m54 0 q10 0 10 -10 m-64 10 h10 m28 0 h10 m0 0 h6 m-64 -10 v20 m74 0 v-20 m-74 20 v24 m74 0 v-24 m-74 24 q0 10 10 10 m54 0 q10 0 10 -10 m-64 10 h10 m28 0 h10 m0 0 h6 m-64 -10 v20 m74 0 v-20 m-74 20 v24 m74 0 v-24 m-74 24 q0 10 10 10 m54 0 q10 0 10 -10 m-64 10 h10 m28 0 h10 m0 0 h6 m-64 -10 v20 m74 0 v-20 m-74 20 v24 m74 0 v-24 m-74 24 q0 10 10 10 m54 0 q10 0 10 -10 m-64 10 h10 m28 0 h10 m0 0 h6 m-64 -10 v20 m74 0 v-20 m-74 20 v24 m74 0 v-24 m-74 24 q0 10 10 10 m54 0 q10 0 10 -10 m-64 10 h10 m26 0 h10 m0 0 h8 m-64 -10 v20 m74 0 v-20 m-74 20 v24 m74 0 v-24 m-74 24 q0 10 10 10 m54 0 q10 0 10 -10 m-64 10 h10 m26 0 h10 m0 0 h8 m-64 -10 v20 m74 0 v-20 m-74 20 v24 m74 0 v-24 m-74 24 q0 10 10 10 m54 0 q10 0 10 -10 m-64 10 h10 m24 0 h10 m0 0 h10 m-64 -10 v20 m74 0 v-20 m-74 20 v24 m74 0 v-24 m-74 24 q0 10 10 10 m54 0 q10 0 10 -10 m-64 10 h10 m28 0 h10 m0 0 h6 m-64 -10 v20 m74 0 v-20 m-74 20 v24 m74 0 v-24 m-74 24 q0 10 10 10 m54 0 q10 0 10 -10 m-64 10 h10 m28 0 h10 m0 0 h6 m-64 -10 v20 m74 0 v-20 m-74 20 v24 m74 0 v-24 m-74 24 q0 10 10 10 m54 0 q10 0 10 -10 m-64 10 h10 m32 0 h10 m0 0 h2 m-64 -10 v20 m74 0 v-20 m-74 20 v24 m74 0 v-24 m-74 24 q0 10 10 10 m54 0 q10 0 10 -10 m-64 10 h10 m28 0 h10 m0 0 h6 m-64 -10 v20 m74 0 v-20 m-74 20 v24 m74 0 v-24 m-74 24 q0 10 10 10 m54 0 q10 0 10 -10 m-64 10 h10 m28 0 h10 m0 0 h6 m-64 -10 v20 m74 0 v-20 m-74 20 v24 m74 0 v-24 m-74 24 q0 10 10 10 m54 0 q10 0 10 -10 m-64 10 h10 m26 0 h10 m0 0 h8 m23 -2244 h-3"/>
   <polygon points="123 17 131 13 131 21"/>
   <polygon points="123 17 115 13 115 21"/>
</svg>
