<?xml version="1.0" encoding="UTF-8"?>
<svg xmlns="http://www.w3.org/2000/svg" width="481" height="37">
   <defs>
      <style type="text/css">
    @namespace "http://www.w3.org/2000/svg";
    .line                 {fill: none; stroke: #332900; stroke-width: 1;}
    .bold-line            {stroke: #141000; shape-rendering: crispEdges; stroke-width: 2;}
    .thin-line            {stroke: #1F1800; shape-rendering: crispEdges}
    .filled               {fill: #332900; stroke: none;}
    text.terminal         {font-family: Verdana, Sans-serif;
                            font-size: 12px;
                            fill: #141000;
                            font-weight: bold;
                          }
    text.nonterminal      {font-family: Verdana, Sans-serif;
                            font-size: 12px;
                            fill: #1A1400;
                            font-weight: normal;
                          }
    text.regexp           {font-family: Verdana, Sans-serif;
                            font-size: 12px;
                            fill: #1F1800;
                            font-weight: normal;
                          }
    rect, circle, polygon {fill: #332900; stroke: #332900;}
    rect.terminal         {fill: #FFDB4D; stroke: #332900; stroke-width: 1;}
    rect.nonterminal      {fill: #FFEC9E; stroke: #332900; stroke-width: 1;}
    rect.text             {fill: none; stroke: none;}
    polygon.regexp        {fill: #FFF4C7; stroke: #332900; stroke-width: 1;}
  </style>
   </defs>
   <polygon points="9 17 1 13 1 21"/>
   <polygon points="17 17 9 13 9 21"/>
   <a xmlns:xlink="http://www.w3.org/1999/xlink"
       xlink:href="#caseInsensitiveN"
       xlink:title="caseInsensitiveN">
      <rect x="31" y="3" width="128" height="32"/>
      <rect x="29" y="1" width="128" height="32" class="nonterminal"/>
      <text class="nonterminal" x="39" y="21">caseInsensitiveN</text>
   </a>
   <a xmlns:xlink="http://www.w3.org/1999/xlink"
       xlink:href="#caseInsensitiveO"
       xlink:title="caseInsensitiveO">
      <rect x="179" y="3" width="128" height="32"/>
      <rect x="177" y="1" width="128" height="32" class="nonterminal"/>
      <text class="nonterminal" x="187" y="21">caseInsensitiveO</text>
   </a>
   <a xmlns:xlink="http://www.w3.org/1999/xlink"
       xlink:href="#caseInsensitiveP"
       xlink:title="caseInsensitiveP">
      <rect x="327" y="3" width="126" height="32"/>
      <rect x="325" y="1" width="126" height="32" class="nonterminal"/>
      <text class="nonterminal" x="335" y="21">caseInsensitiveP</text>
   </a>
   <path class="line"
          d="m17 17 h2 m0 0 h10 m128 0 h10 m0 0 h10 m128 0 h10 m0 0 h10 m126 0 h10 m3 0 h-3"/>
   <polygon points="471 17 479 13 479 21"/>
   <polygon points="471 17 463 13 463 21"/>
</svg>
