<?xml version="1.0" encoding="UTF-8"?>
<svg xmlns="http://www.w3.org/2000/svg" width="477" height="37">
   <defs>
      <style type="text/css">
    @namespace "http://www.w3.org/2000/svg";
    .line                 {fill: none; stroke: #332900; stroke-width: 1;}
    .bold-line            {stroke: #141000; shape-rendering: crispEdges; stroke-width: 2;}
    .thin-line            {stroke: #1F1800; shape-rendering: crispEdges}
    .filled               {fill: #332900; stroke: none;}
    text.terminal         {font-family: Verdana, Sans-serif;
                            font-size: 12px;
                            fill: #141000;
                            font-weight: bold;
                          }
    text.nonterminal      {font-family: Verdana, Sans-serif;
                            font-size: 12px;
                            fill: #1A1400;
                            font-weight: normal;
                          }
    text.regexp           {font-family: Verdana, Sans-serif;
                            font-size: 12px;
                            fill: #1F1800;
                            font-weight: normal;
                          }
    rect, circle, polygon {fill: #332900; stroke: #332900;}
    rect.terminal         {fill: #FFDB4D; stroke: #332900; stroke-width: 1;}
    rect.nonterminal      {fill: #FFEC9E; stroke: #332900; stroke-width: 1;}
    rect.text             {fill: none; stroke: none;}
    polygon.regexp        {fill: #FFF4C7; stroke: #332900; stroke-width: 1;}
  </style>
   </defs>
   <polygon points="9 17 1 13 1 21"/>
   <polygon points="17 17 9 13 9 21"/>
   <a xmlns:xlink="http://www.w3.org/1999/xlink"
       xlink:href="#caseInsensitiveR"
       xlink:title="caseInsensitiveR">
      <rect x="31" y="3" width="126" height="32"/>
      <rect x="29" y="1" width="126" height="32" class="nonterminal"/>
      <text class="nonterminal" x="39" y="21">caseInsensitiveR</text>
   </a>
   <a xmlns:xlink="http://www.w3.org/1999/xlink"
       xlink:href="#caseInsensitiveE"
       xlink:title="caseInsensitiveE">
      <rect x="177" y="3" width="126" height="32"/>
      <rect x="175" y="1" width="126" height="32" class="nonterminal"/>
      <text class="nonterminal" x="185" y="21">caseInsensitiveE</text>
   </a>
   <a xmlns:xlink="http://www.w3.org/1999/xlink"
       xlink:href="#caseInsensitiveT"
       xlink:title="caseInsensitiveT">
      <rect x="323" y="3" width="126" height="32"/>
      <rect x="321" y="1" width="126" height="32" class="nonterminal"/>
      <text class="nonterminal" x="331" y="21">caseInsensitiveT</text>
   </a>
   <path class="line"
          d="m17 17 h2 m0 0 h10 m126 0 h10 m0 0 h10 m126 0 h10 m0 0 h10 m126 0 h10 m3 0 h-3"/>
   <polygon points="467 17 475 13 475 21"/>
   <polygon points="467 17 459 13 459 21"/>
</svg>
