<?xml version="1.0" encoding="UTF-8"?>
<svg xmlns="http://www.w3.org/2000/svg" width="957" height="135">
   <defs>
      <style type="text/css">
    @namespace "http://www.w3.org/2000/svg";
    .line                 {fill: none; stroke: #332900; stroke-width: 1;}
    .bold-line            {stroke: #141000; shape-rendering: crispEdges; stroke-width: 2;}
    .thin-line            {stroke: #1F1800; shape-rendering: crispEdges}
    .filled               {fill: #332900; stroke: none;}
    text.terminal         {font-family: Verdana, Sans-serif;
                            font-size: 12px;
                            fill: #141000;
                            font-weight: bold;
                          }
    text.nonterminal      {font-family: Verdana, Sans-serif;
                            font-size: 12px;
                            fill: #1A1400;
                            font-weight: normal;
                          }
    text.regexp           {font-family: Verdana, Sans-serif;
                            font-size: 12px;
                            fill: #1F1800;
                            font-weight: normal;
                          }
    rect, circle, polygon {fill: #332900; stroke: #332900;}
    rect.terminal         {fill: #FFDB4D; stroke: #332900; stroke-width: 1;}
    rect.nonterminal      {fill: #FFEC9E; stroke: #332900; stroke-width: 1;}
    rect.text             {fill: none; stroke: none;}
    polygon.regexp        {fill: #FFF4C7; stroke: #332900; stroke-width: 1;}
  </style>
   </defs>
   <polygon points="9 17 1 13 1 21"/>
   <polygon points="17 17 9 13 9 21"/>
   <a xmlns:xlink="http://www.w3.org/1999/xlink"
       xlink:href="#caseInsensitiveS"
       xlink:title="caseInsensitiveS">
      <rect x="31" y="3" width="126" height="32"/>
      <rect x="29" y="1" width="126" height="32" class="nonterminal"/>
      <text class="nonterminal" x="39" y="21">caseInsensitiveS</text>
   </a>
   <a xmlns:xlink="http://www.w3.org/1999/xlink"
       xlink:href="#caseInsensitiveI"
       xlink:title="caseInsensitiveI">
      <rect x="177" y="3" width="124" height="32"/>
      <rect x="175" y="1" width="124" height="32" class="nonterminal"/>
      <text class="nonterminal" x="185" y="21">caseInsensitiveI</text>
   </a>
   <a xmlns:xlink="http://www.w3.org/1999/xlink"
       xlink:href="#caseInsensitiveG"
       xlink:title="caseInsensitiveG">
      <rect x="321" y="3" width="128" height="32"/>
      <rect x="319" y="1" width="128" height="32" class="nonterminal"/>
      <text class="nonterminal" x="329" y="21">caseInsensitiveG</text>
   </a>
   <a xmlns:xlink="http://www.w3.org/1999/xlink"
       xlink:href="#caseInsensitiveN"
       xlink:title="caseInsensitiveN">
      <rect x="469" y="3" width="128" height="32"/>
      <rect x="467" y="1" width="128" height="32" class="nonterminal"/>
      <text class="nonterminal" x="477" y="21">caseInsensitiveN</text>
   </a>
   <rect x="617" y="3" width="28" height="32" rx="10"/>
   <rect x="615"
          y="1"
          width="28"
          height="32"
          class="terminal"
          rx="10"/>
   <text class="terminal" x="625" y="21">_</text>
   <a xmlns:xlink="http://www.w3.org/1999/xlink"
       xlink:href="#caseInsensitiveJ"
       xlink:title="caseInsensitiveJ">
      <rect x="665" y="3" width="124" height="32"/>
      <rect x="663" y="1" width="124" height="32" class="nonterminal"/>
      <text class="nonterminal" x="673" y="21">caseInsensitiveJ</text>
   </a>
   <a xmlns:xlink="http://www.w3.org/1999/xlink"
       xlink:href="#caseInsensitiveL"
       xlink:title="caseInsensitiveL">
      <rect x="809" y="3" width="126" height="32"/>
      <rect x="807" y="1" width="126" height="32" class="nonterminal"/>
      <text class="nonterminal" x="817" y="21">caseInsensitiveL</text>
   </a>
   <a xmlns:xlink="http://www.w3.org/1999/xlink"
       xlink:href="#caseInsensitiveT"
       xlink:title="caseInsensitiveT">
      <rect x="413" y="69" width="126" height="32"/>
      <rect x="411" y="67" width="126" height="32" class="nonterminal"/>
      <text class="nonterminal" x="421" y="87">caseInsensitiveT</text>
   </a>
   <a xmlns:xlink="http://www.w3.org/1999/xlink"
       xlink:href="#whitespace"
       xlink:title="whitespace">
      <rect x="559" y="69" width="90" height="32"/>
      <rect x="557" y="67" width="90" height="32" class="nonterminal"/>
      <text class="nonterminal" x="567" y="87">whitespace</text>
   </a>
   <a xmlns:xlink="http://www.w3.org/1999/xlink"
       xlink:href="#pointer"
       xlink:title="pointer">
      <rect x="669" y="69" width="64" height="32"/>
      <rect x="667" y="67" width="64" height="32" class="nonterminal"/>
      <text class="nonterminal" x="677" y="87">pointer</text>
   </a>
   <a xmlns:xlink="http://www.w3.org/1999/xlink"
       xlink:href="#operandSeparator"
       xlink:title="operandSeparator">
      <rect x="773" y="101" width="136" height="32"/>
      <rect x="771" y="99" width="136" height="32" class="nonterminal"/>
      <text class="nonterminal" x="781" y="119">operandSeparator</text>
   </a>
   <path class="line"
          d="m17 17 h2 m0 0 h10 m126 0 h10 m0 0 h10 m124 0 h10 m0 0 h10 m128 0 h10 m0 0 h10 m128 0 h10 m0 0 h10 m28 0 h10 m0 0 h10 m124 0 h10 m0 0 h10 m126 0 h10 m2 0 l2 0 m2 0 l2 0 m2 0 l2 0 m-566 66 l2 0 m2 0 l2 0 m2 0 l2 0 m2 0 h10 m126 0 h10 m0 0 h10 m90 0 h10 m0 0 h10 m64 0 h10 m20 0 h10 m0 0 h146 m-176 0 h20 m156 0 h20 m-196 0 q10 0 10 10 m176 0 q0 -10 10 -10 m-186 10 v12 m176 0 v-12 m-176 12 q0 10 10 10 m156 0 q10 0 10 -10 m-166 10 h10 m136 0 h10 m23 -32 h-3"/>
   <polygon points="947 83 955 79 955 87"/>
   <polygon points="947 83 939 79 939 87"/>
</svg>
