<?xml version="1.0" encoding="UTF-8"?>
<svg xmlns="http://www.w3.org/2000/svg" width="217" height="169">
   <defs>
      <style type="text/css">
    @namespace "http://www.w3.org/2000/svg";
    .line                 {fill: none; stroke: #332900; stroke-width: 1;}
    .bold-line            {stroke: #141000; shape-rendering: crispEdges; stroke-width: 2;}
    .thin-line            {stroke: #1F1800; shape-rendering: crispEdges}
    .filled               {fill: #332900; stroke: none;}
    text.terminal         {font-family: Verdana, Sans-serif;
                            font-size: 12px;
                            fill: #141000;
                            font-weight: bold;
                          }
    text.nonterminal      {font-family: Verdana, Sans-serif;
                            font-size: 12px;
                            fill: #1A1400;
                            font-weight: normal;
                          }
    text.regexp           {font-family: Verdana, Sans-serif;
                            font-size: 12px;
                            fill: #1F1800;
                            font-weight: normal;
                          }
    rect, circle, polygon {fill: #332900; stroke: #332900;}
    rect.terminal         {fill: #FFDB4D; stroke: #332900; stroke-width: 1;}
    rect.nonterminal      {fill: #FFEC9E; stroke: #332900; stroke-width: 1;}
    rect.text             {fill: none; stroke: none;}
    polygon.regexp        {fill: #FFF4C7; stroke: #332900; stroke-width: 1;}
  </style>
   </defs>
   <polygon points="9 17 1 13 1 21"/>
   <polygon points="17 17 9 13 9 21"/>
   <a xmlns:xlink="http://www.w3.org/1999/xlink"
       xlink:href="#letter"
       xlink:title="letter">
      <rect x="51" y="3" width="54" height="32"/>
      <rect x="49" y="1" width="54" height="32" class="nonterminal"/>
      <text class="nonterminal" x="59" y="21">letter</text>
   </a>
   <a xmlns:xlink="http://www.w3.org/1999/xlink"
       xlink:href="#digit"
       xlink:title="digit">
      <rect x="51" y="47" width="48" height="32"/>
      <rect x="49" y="45" width="48" height="32" class="nonterminal"/>
      <text class="nonterminal" x="59" y="65">digit</text>
   </a>
   <a xmlns:xlink="http://www.w3.org/1999/xlink"
       xlink:href="#stringSymbol"
       xlink:title="stringSymbol">
      <rect x="51" y="91" width="102" height="32"/>
      <rect x="49" y="89" width="102" height="32" class="nonterminal"/>
      <text class="nonterminal" x="59" y="109">stringSymbol</text>
   </a>
   <a xmlns:xlink="http://www.w3.org/1999/xlink"
       xlink:href="#stringBackslash"
       xlink:title="stringBackslash">
      <rect x="51" y="135" width="118" height="32"/>
      <rect x="49" y="133" width="118" height="32" class="nonterminal"/>
      <text class="nonterminal" x="59" y="153">stringBackslash</text>
   </a>
   <path class="line"
          d="m17 17 h2 m20 0 h10 m54 0 h10 m0 0 h64 m-158 0 h20 m138 0 h20 m-178 0 q10 0 10 10 m158 0 q0 -10 10 -10 m-168 10 v24 m158 0 v-24 m-158 24 q0 10 10 10 m138 0 q10 0 10 -10 m-148 10 h10 m48 0 h10 m0 0 h70 m-148 -10 v20 m158 0 v-20 m-158 20 v24 m158 0 v-24 m-158 24 q0 10 10 10 m138 0 q10 0 10 -10 m-148 10 h10 m102 0 h10 m0 0 h16 m-148 -10 v20 m158 0 v-20 m-158 20 v24 m158 0 v-24 m-158 24 q0 10 10 10 m138 0 q10 0 10 -10 m-148 10 h10 m118 0 h10 m23 -132 h-3"/>
   <polygon points="207 17 215 13 215 21"/>
   <polygon points="207 17 199 13 199 21"/>
</svg>
