<?xml version="1.0" encoding="UTF-8"?>
<svg xmlns="http://www.w3.org/2000/svg" width="921" height="69">
   <defs>
      <style type="text/css">
    @namespace "http://www.w3.org/2000/svg";
    .line                 {fill: none; stroke: #332900; stroke-width: 1;}
    .bold-line            {stroke: #141000; shape-rendering: crispEdges; stroke-width: 2;}
    .thin-line            {stroke: #1F1800; shape-rendering: crispEdges}
    .filled               {fill: #332900; stroke: none;}
    text.terminal         {font-family: Verdana, Sans-serif;
                            font-size: 12px;
                            fill: #141000;
                            font-weight: bold;
                          }
    text.nonterminal      {font-family: Verdana, Sans-serif;
                            font-size: 12px;
                            fill: #1A1400;
                            font-weight: normal;
                          }
    text.regexp           {font-family: Verdana, Sans-serif;
                            font-size: 12px;
                            fill: #1F1800;
                            font-weight: normal;
                          }
    rect, circle, polygon {fill: #332900; stroke: #332900;}
    rect.terminal         {fill: #FFDB4D; stroke: #332900; stroke-width: 1;}
    rect.nonterminal      {fill: #FFEC9E; stroke: #332900; stroke-width: 1;}
    rect.text             {fill: none; stroke: none;}
    polygon.regexp        {fill: #FFF4C7; stroke: #332900; stroke-width: 1;}
  </style>
   </defs>
   <polygon points="9 17 1 13 1 21"/>
   <polygon points="17 17 9 13 9 21"/>
   <a xmlns:xlink="http://www.w3.org/1999/xlink"
       xlink:href="#caseInsensitiveW"
       xlink:title="caseInsensitiveW">
      <rect x="31" y="3" width="132" height="32"/>
      <rect x="29" y="1" width="132" height="32" class="nonterminal"/>
      <text class="nonterminal" x="39" y="21">caseInsensitiveW</text>
   </a>
   <a xmlns:xlink="http://www.w3.org/1999/xlink"
       xlink:href="#caseInsensitiveF"
       xlink:title="caseInsensitiveF">
      <rect x="183" y="3" width="126" height="32"/>
      <rect x="181" y="1" width="126" height="32" class="nonterminal"/>
      <text class="nonterminal" x="191" y="21">caseInsensitiveF</text>
   </a>
   <a xmlns:xlink="http://www.w3.org/1999/xlink"
       xlink:href="#caseInsensitiveN"
       xlink:title="caseInsensitiveN">
      <rect x="329" y="3" width="128" height="32"/>
      <rect x="327" y="1" width="128" height="32" class="nonterminal"/>
      <text class="nonterminal" x="337" y="21">caseInsensitiveN</text>
   </a>
   <a xmlns:xlink="http://www.w3.org/1999/xlink"
       xlink:href="#whitespace"
       xlink:title="whitespace">
      <rect x="477" y="3" width="90" height="32"/>
      <rect x="475" y="1" width="90" height="32" class="nonterminal"/>
      <text class="nonterminal" x="485" y="21">whitespace</text>
   </a>
   <a xmlns:xlink="http://www.w3.org/1999/xlink"
       xlink:href="#numericLiteral"
       xlink:title="numericLiteral">
      <rect x="587" y="3" width="110" height="32"/>
      <rect x="585" y="1" width="110" height="32" class="nonterminal"/>
      <text class="nonterminal" x="595" y="21">numericLiteral</text>
   </a>
   <a xmlns:xlink="http://www.w3.org/1999/xlink"
       xlink:href="#operandSeparator"
       xlink:title="operandSeparator">
      <rect x="737" y="35" width="136" height="32"/>
      <rect x="735" y="33" width="136" height="32" class="nonterminal"/>
      <text class="nonterminal" x="745" y="53">operandSeparator</text>
   </a>
   <path class="line"
          d="m17 17 h2 m0 0 h10 m132 0 h10 m0 0 h10 m126 0 h10 m0 0 h10 m128 0 h10 m0 0 h10 m90 0 h10 m0 0 h10 m110 0 h10 m20 0 h10 m0 0 h146 m-176 0 h20 m156 0 h20 m-196 0 q10 0 10 10 m176 0 q0 -10 10 -10 m-186 10 v12 m176 0 v-12 m-176 12 q0 10 10 10 m156 0 q10 0 10 -10 m-166 10 h10 m136 0 h10 m23 -32 h-3"/>
   <polygon points="911 17 919 13 919 21"/>
   <polygon points="911 17 903 13 903 21"/>
</svg>
