<?xml version="1.0" encoding="UTF-8"?>
<svg xmlns="http://www.w3.org/2000/svg" width="163" height="125">
   <defs>
      <style type="text/css">
    @namespace "http://www.w3.org/2000/svg";
    .line                 {fill: none; stroke: #332900; stroke-width: 1;}
    .bold-line            {stroke: #141000; shape-rendering: crispEdges; stroke-width: 2;}
    .thin-line            {stroke: #1F1800; shape-rendering: crispEdges}
    .filled               {fill: #332900; stroke: none;}
    text.terminal         {font-family: Verdana, Sans-serif;
                            font-size: 12px;
                            fill: #141000;
                            font-weight: bold;
                          }
    text.nonterminal      {font-family: Verdana, Sans-serif;
                            font-size: 12px;
                            fill: #1A1400;
                            font-weight: normal;
                          }
    text.regexp           {font-family: Verdana, Sans-serif;
                            font-size: 12px;
                            fill: #1F1800;
                            font-weight: normal;
                          }
    rect, circle, polygon {fill: #332900; stroke: #332900;}
    rect.terminal         {fill: #FFDB4D; stroke: #332900; stroke-width: 1;}
    rect.nonterminal      {fill: #FFEC9E; stroke: #332900; stroke-width: 1;}
    rect.text             {fill: none; stroke: none;}
    polygon.regexp        {fill: #FFF4C7; stroke: #332900; stroke-width: 1;}
  </style>
   </defs>
   <polygon points="9 17 1 13 1 21"/>
   <polygon points="17 17 9 13 9 21"/>
   <a xmlns:xlink="http://www.w3.org/1999/xlink"
       xlink:href="#letter"
       xlink:title="letter">
      <rect x="51" y="3" width="54" height="32"/>
      <rect x="49" y="1" width="54" height="32" class="nonterminal"/>
      <text class="nonterminal" x="59" y="21">letter</text>
   </a>
   <a xmlns:xlink="http://www.w3.org/1999/xlink"
       xlink:href="#digit"
       xlink:title="digit">
      <rect x="51" y="47" width="48" height="32"/>
      <rect x="49" y="45" width="48" height="32" class="nonterminal"/>
      <text class="nonterminal" x="59" y="65">digit</text>
   </a>
   <a xmlns:xlink="http://www.w3.org/1999/xlink"
       xlink:href="#symbol"
       xlink:title="symbol">
      <rect x="51" y="91" width="64" height="32"/>
      <rect x="49" y="89" width="64" height="32" class="nonterminal"/>
      <text class="nonterminal" x="59" y="109">symbol</text>
   </a>
   <path class="line"
          d="m17 17 h2 m20 0 h10 m54 0 h10 m0 0 h10 m-104 0 h20 m84 0 h20 m-124 0 q10 0 10 10 m104 0 q0 -10 10 -10 m-114 10 v24 m104 0 v-24 m-104 24 q0 10 10 10 m84 0 q10 0 10 -10 m-94 10 h10 m48 0 h10 m0 0 h16 m-94 -10 v20 m104 0 v-20 m-104 20 v24 m104 0 v-24 m-104 24 q0 10 10 10 m84 0 q10 0 10 -10 m-94 10 h10 m64 0 h10 m23 -88 h-3"/>
   <polygon points="153 17 161 13 161 21"/>
   <polygon points="153 17 145 13 145 21"/>
</svg>
