<?xml version="1.0" encoding="UTF-8"?>
<svg xmlns="http://www.w3.org/2000/svg" width="795" height="179">
   <defs>
      <style type="text/css">
    @namespace "http://www.w3.org/2000/svg";
    .line                 {fill: none; stroke: #332900; stroke-width: 1;}
    .bold-line            {stroke: #141000; shape-rendering: crispEdges; stroke-width: 2;}
    .thin-line            {stroke: #1F1800; shape-rendering: crispEdges}
    .filled               {fill: #332900; stroke: none;}
    text.terminal         {font-family: Verdana, Sans-serif;
                            font-size: 12px;
                            fill: #141000;
                            font-weight: bold;
                          }
    text.nonterminal      {font-family: Verdana, Sans-serif;
                            font-size: 12px;
                            fill: #1A1400;
                            font-weight: normal;
                          }
    text.regexp           {font-family: Verdana, Sans-serif;
                            font-size: 12px;
                            fill: #1F1800;
                            font-weight: normal;
                          }
    rect, circle, polygon {fill: #332900; stroke: #332900;}
    rect.terminal         {fill: #FFDB4D; stroke: #332900; stroke-width: 1;}
    rect.nonterminal      {fill: #FFEC9E; stroke: #332900; stroke-width: 1;}
    rect.text             {fill: none; stroke: none;}
    polygon.regexp        {fill: #FFF4C7; stroke: #332900; stroke-width: 1;}
  </style>
   </defs>
   <polygon points="9 61 1 57 1 65"/>
   <polygon points="17 61 9 57 9 65"/>
   <a xmlns:xlink="http://www.w3.org/1999/xlink"
       xlink:href="#mnemonicChar"
       xlink:title="mnemonicChar">
      <rect x="71" y="47" width="114" height="32"/>
      <rect x="69" y="45" width="114" height="32" class="nonterminal"/>
      <text class="nonterminal" x="79" y="65">mnemonicChar</text>
   </a>
   <a xmlns:xlink="http://www.w3.org/1999/xlink"
       xlink:href="#whitespace"
       xlink:title="whitespace">
      <rect x="245" y="47" width="90" height="32"/>
      <rect x="243" y="45" width="90" height="32" class="nonterminal"/>
      <text class="nonterminal" x="253" y="65">whitespace</text>
   </a>
   <a xmlns:xlink="http://www.w3.org/1999/xlink"
       xlink:href="#operand"
       xlink:title="operand">
      <rect x="375" y="47" width="72" height="32"/>
      <rect x="373" y="45" width="72" height="32" class="nonterminal"/>
      <text class="nonterminal" x="383" y="65">operand</text>
   </a>
   <a xmlns:xlink="http://www.w3.org/1999/xlink"
       xlink:href="#operandSeparator"
       xlink:title="operandSeparator">
      <rect x="375" y="3" width="136" height="32"/>
      <rect x="373" y="1" width="136" height="32" class="nonterminal"/>
      <text class="nonterminal" x="383" y="21">operandSeparator</text>
   </a>
   <a xmlns:xlink="http://www.w3.org/1999/xlink"
       xlink:href="#operandSeparator"
       xlink:title="operandSeparator">
      <rect x="571" y="79" width="136" height="32"/>
      <rect x="569" y="77" width="136" height="32" class="nonterminal"/>
      <text class="nonterminal" x="579" y="97">operandSeparator</text>
   </a>
   <a xmlns:xlink="http://www.w3.org/1999/xlink"
       xlink:href="#directiveMac"
       xlink:title="directiveMac">
      <rect x="51" y="145" width="98" height="32"/>
      <rect x="49" y="143" width="98" height="32" class="nonterminal"/>
      <text class="nonterminal" x="59" y="163">directiveMac</text>
   </a>
   <path class="line"
          d="m17 61 h2 m40 0 h10 m114 0 h10 m-154 0 l20 0 m-1 0 q-9 0 -9 -10 l0 -12 q0 -10 10 -10 m134 32 l20 0 m-20 0 q10 0 10 -10 l0 -12 q0 -10 -10 -10 m-134 0 h10 m0 0 h124 m40 32 h10 m90 0 h10 m20 0 h10 m72 0 h10 m0 0 h64 m-176 0 l20 0 m-1 0 q-9 0 -9 -10 l0 -24 q0 -10 10 -10 m156 44 l20 0 m-20 0 q10 0 10 -10 l0 -24 q0 -10 -10 -10 m-156 0 h10 m136 0 h10 m40 44 h10 m0 0 h146 m-176 0 h20 m156 0 h20 m-196 0 q10 0 10 10 m176 0 q0 -10 10 -10 m-186 10 v12 m176 0 v-12 m-176 12 q0 10 10 10 m156 0 q10 0 10 -10 m-166 10 h10 m136 0 h10 m-502 -32 h20 m502 0 h20 m-542 0 q10 0 10 10 m522 0 q0 -10 10 -10 m-532 10 v46 m522 0 v-46 m-522 46 q0 10 10 10 m502 0 q10 0 10 -10 m-512 10 h10 m0 0 h492 m-716 -66 h20 m716 0 h20 m-756 0 q10 0 10 10 m736 0 q0 -10 10 -10 m-746 10 v78 m736 0 v-78 m-736 78 q0 10 10 10 m716 0 q10 0 10 -10 m-726 10 h10 m98 0 h10 m0 0 h598 m23 -98 h-3"/>
   <polygon points="785 61 793 57 793 65"/>
   <polygon points="785 61 777 57 777 65"/>
</svg>
