<?xml version="1.0" encoding="UTF-8"?>
<svg xmlns="http://www.w3.org/2000/svg" width="785" height="69">
   <defs>
      <style type="text/css">
    @namespace "http://www.w3.org/2000/svg";
    .line                 {fill: none; stroke: #332900; stroke-width: 1;}
    .bold-line            {stroke: #141000; shape-rendering: crispEdges; stroke-width: 2;}
    .thin-line            {stroke: #1F1800; shape-rendering: crispEdges}
    .filled               {fill: #332900; stroke: none;}
    text.terminal         {font-family: Verdana, Sans-serif;
                            font-size: 12px;
                            fill: #141000;
                            font-weight: bold;
                          }
    text.nonterminal      {font-family: Verdana, Sans-serif;
                            font-size: 12px;
                            fill: #1A1400;
                            font-weight: normal;
                          }
    text.regexp           {font-family: Verdana, Sans-serif;
                            font-size: 12px;
                            fill: #1F1800;
                            font-weight: normal;
                          }
    rect, circle, polygon {fill: #332900; stroke: #332900;}
    rect.terminal         {fill: #FFDB4D; stroke: #332900; stroke-width: 1;}
    rect.nonterminal      {fill: #FFEC9E; stroke: #332900; stroke-width: 1;}
    rect.text             {fill: none; stroke: none;}
    polygon.regexp        {fill: #FFF4C7; stroke: #332900; stroke-width: 1;}
  </style>
   </defs>
   <polygon points="9 17 1 13 1 21"/>
   <polygon points="17 17 9 13 9 21"/>
   <a xmlns:xlink="http://www.w3.org/1999/xlink"
       xlink:href="#whitespace"
       xlink:title="whitespace">
      <rect x="51" y="35" width="90" height="32"/>
      <rect x="49" y="33" width="90" height="32" class="nonterminal"/>
      <text class="nonterminal" x="59" y="53">whitespace</text>
   </a>
   <a xmlns:xlink="http://www.w3.org/1999/xlink"
       xlink:href="#lineBody"
       xlink:title="lineBody">
      <rect x="181" y="3" width="74" height="32"/>
      <rect x="179" y="1" width="74" height="32" class="nonterminal"/>
      <text class="nonterminal" x="189" y="21">lineBody</text>
   </a>
   <a xmlns:xlink="http://www.w3.org/1999/xlink"
       xlink:href="#whitespace"
       xlink:title="whitespace">
      <rect x="295" y="35" width="90" height="32"/>
      <rect x="293" y="33" width="90" height="32" class="nonterminal"/>
      <text class="nonterminal" x="303" y="53">whitespace</text>
   </a>
   <a xmlns:xlink="http://www.w3.org/1999/xlink"
       xlink:href="#comment"
       xlink:title="comment">
      <rect x="445" y="35" width="78" height="32"/>
      <rect x="443" y="33" width="78" height="32" class="nonterminal"/>
      <text class="nonterminal" x="453" y="53">comment</text>
   </a>
   <a xmlns:xlink="http://www.w3.org/1999/xlink"
       xlink:href="#whitespace"
       xlink:title="whitespace">
      <rect x="583" y="35" width="90" height="32"/>
      <rect x="581" y="33" width="90" height="32" class="nonterminal"/>
      <text class="nonterminal" x="591" y="53">whitespace</text>
   </a>
   <a xmlns:xlink="http://www.w3.org/1999/xlink"
       xlink:href="#EOL"
       xlink:title="EOL">
      <rect x="713" y="3" width="44" height="32"/>
      <rect x="711" y="1" width="44" height="32" class="nonterminal"/>
      <text class="nonterminal" x="721" y="21">EOL</text>
   </a>
   <path class="line"
          d="m17 17 h2 m20 0 h10 m0 0 h100 m-130 0 h20 m110 0 h20 m-150 0 q10 0 10 10 m130 0 q0 -10 10 -10 m-140 10 v12 m130 0 v-12 m-130 12 q0 10 10 10 m110 0 q10 0 10 -10 m-120 10 h10 m90 0 h10 m20 -32 h10 m74 0 h10 m20 0 h10 m0 0 h100 m-130 0 h20 m110 0 h20 m-150 0 q10 0 10 10 m130 0 q0 -10 10 -10 m-140 10 v12 m130 0 v-12 m-130 12 q0 10 10 10 m110 0 q10 0 10 -10 m-120 10 h10 m90 0 h10 m40 -32 h10 m0 0 h88 m-118 0 h20 m98 0 h20 m-138 0 q10 0 10 10 m118 0 q0 -10 10 -10 m-128 10 v12 m118 0 v-12 m-118 12 q0 10 10 10 m98 0 q10 0 10 -10 m-108 10 h10 m78 0 h10 m40 -32 h10 m0 0 h100 m-130 0 h20 m110 0 h20 m-150 0 q10 0 10 10 m130 0 q0 -10 10 -10 m-140 10 v12 m130 0 v-12 m-130 12 q0 10 10 10 m110 0 q10 0 10 -10 m-120 10 h10 m90 0 h10 m20 -32 h10 m44 0 h10 m3 0 h-3"/>
   <polygon points="775 17 783 13 783 21"/>
   <polygon points="775 17 767 13 767 21"/>
</svg>
