<?xml version="1.0" encoding="UTF-8"?>
<svg xmlns="http://www.w3.org/2000/svg" width="983" height="103">
   <defs>
      <style type="text/css">
    @namespace "http://www.w3.org/2000/svg";
    .line                 {fill: none; stroke: #332900; stroke-width: 1;}
    .bold-line            {stroke: #141000; shape-rendering: crispEdges; stroke-width: 2;}
    .thin-line            {stroke: #1F1800; shape-rendering: crispEdges}
    .filled               {fill: #332900; stroke: none;}
    text.terminal         {font-family: Verdana, Sans-serif;
                            font-size: 12px;
                            fill: #141000;
                            font-weight: bold;
                          }
    text.nonterminal      {font-family: Verdana, Sans-serif;
                            font-size: 12px;
                            fill: #1A1400;
                            font-weight: normal;
                          }
    text.regexp           {font-family: Verdana, Sans-serif;
                            font-size: 12px;
                            fill: #1F1800;
                            font-weight: normal;
                          }
    rect, circle, polygon {fill: #332900; stroke: #332900;}
    rect.terminal         {fill: #FFDB4D; stroke: #332900; stroke-width: 1;}
    rect.nonterminal      {fill: #FFEC9E; stroke: #332900; stroke-width: 1;}
    rect.text             {fill: none; stroke: none;}
    polygon.regexp        {fill: #FFF4C7; stroke: #332900; stroke-width: 1;}
  </style>
   </defs>
   <polygon points="9 17 1 13 1 21"/>
   <polygon points="17 17 9 13 9 21"/>
   <rect x="31" y="3" width="30" height="32" rx="10"/>
   <rect x="29"
          y="1"
          width="30"
          height="32"
          class="terminal"
          rx="10"/>
   <text class="terminal" x="39" y="21">U</text>
   <a xmlns:xlink="http://www.w3.org/1999/xlink"
       xlink:href="#hexadecimalChar"
       xlink:title="hexadecimalChar">
      <rect x="81" y="3" width="130" height="32"/>
      <rect x="79" y="1" width="130" height="32" class="nonterminal"/>
      <text class="nonterminal" x="89" y="21">hexadecimalChar</text>
   </a>
   <a xmlns:xlink="http://www.w3.org/1999/xlink"
       xlink:href="#hexadecimalChar"
       xlink:title="hexadecimalChar">
      <rect x="231" y="3" width="130" height="32"/>
      <rect x="229" y="1" width="130" height="32" class="nonterminal"/>
      <text class="nonterminal" x="239" y="21">hexadecimalChar</text>
   </a>
   <a xmlns:xlink="http://www.w3.org/1999/xlink"
       xlink:href="#hexadecimalChar"
       xlink:title="hexadecimalChar">
      <rect x="381" y="3" width="130" height="32"/>
      <rect x="379" y="1" width="130" height="32" class="nonterminal"/>
      <text class="nonterminal" x="389" y="21">hexadecimalChar</text>
   </a>
   <a xmlns:xlink="http://www.w3.org/1999/xlink"
       xlink:href="#hexadecimalChar"
       xlink:title="hexadecimalChar">
      <rect x="531" y="3" width="130" height="32"/>
      <rect x="529" y="1" width="130" height="32" class="nonterminal"/>
      <text class="nonterminal" x="539" y="21">hexadecimalChar</text>
   </a>
   <a xmlns:xlink="http://www.w3.org/1999/xlink"
       xlink:href="#hexadecimalChar"
       xlink:title="hexadecimalChar">
      <rect x="681" y="3" width="130" height="32"/>
      <rect x="679" y="1" width="130" height="32" class="nonterminal"/>
      <text class="nonterminal" x="689" y="21">hexadecimalChar</text>
   </a>
   <a xmlns:xlink="http://www.w3.org/1999/xlink"
       xlink:href="#hexadecimalChar"
       xlink:title="hexadecimalChar">
      <rect x="831" y="3" width="130" height="32"/>
      <rect x="829" y="1" width="130" height="32" class="nonterminal"/>
      <text class="nonterminal" x="839" y="21">hexadecimalChar</text>
   </a>
   <a xmlns:xlink="http://www.w3.org/1999/xlink"
       xlink:href="#hexadecimalChar"
       xlink:title="hexadecimalChar">
      <rect x="675" y="69" width="130" height="32"/>
      <rect x="673" y="67" width="130" height="32" class="nonterminal"/>
      <text class="nonterminal" x="683" y="87">hexadecimalChar</text>
   </a>
   <a xmlns:xlink="http://www.w3.org/1999/xlink"
       xlink:href="#hexadecimalChar"
       xlink:title="hexadecimalChar">
      <rect x="825" y="69" width="130" height="32"/>
      <rect x="823" y="67" width="130" height="32" class="nonterminal"/>
      <text class="nonterminal" x="833" y="87">hexadecimalChar</text>
   </a>
   <path class="line"
          d="m17 17 h2 m0 0 h10 m30 0 h10 m0 0 h10 m130 0 h10 m0 0 h10 m130 0 h10 m0 0 h10 m130 0 h10 m0 0 h10 m130 0 h10 m0 0 h10 m130 0 h10 m0 0 h10 m130 0 h10 m2 0 l2 0 m2 0 l2 0 m2 0 l2 0 m-330 66 l2 0 m2 0 l2 0 m2 0 l2 0 m2 0 h10 m130 0 h10 m0 0 h10 m130 0 h10 m3 0 h-3"/>
   <polygon points="973 83 981 79 981 87"/>
   <polygon points="973 83 965 79 965 87"/>
</svg>
